# xmcd
#
# Track frame offsets:
#	150
#	19875
#	46696
#	58709
#	70817
#	83901
#	99877
#	112897
#	125492
#	136111
#	148533
#	160918
#	172877
#	185991
#	196283
#	208193
#	223997
#	238144
#
# Disc length: 3357
#
# Revision: 2
# Processed by: cddbd v1.5.1PL0 Copyright (c) Steve Scherf et al.
# Submitted via: EasyCDDAExtractor 7.0.4.1
# Normalized: r1:DSETVAR1
#
DISCID=050d1b12
DTITLE=Various Artist - Gospel
DYEAR=1900
DGENRE=Gospel
TTITLE0=Blue Night Chord - Oh! Happy Day
TTITLE1=Mahalia Jackson - In The Upper Room (Part 1&2)
TTITLE2=Reverend Kelsey - Little Boy
TTITLE3=Sister Rosetta Tharoe - This Train
TTITLE4=Wings Over Jordan - Trampin'
TTITLE5=Mahalia Jackson - Amazing Grace
TTITLE6=Sister Ernestine Anderson - Saviour Don't Pass Me By
TTITLE7=Sister Rosetta Tharpe - Just A Closer Walk With Thee
TTITLE8=Mary Knight - Gospel Train
TTITLE9=Dixie Humming Birds - I Looked Down The Line
TTITLE10=Selah Jubilee Singers - I Saw The Light
TTITLE11=Josh White - King Jesus Know I'm Comin'
TTITLE12=The Soul Stirers - Does Jesus Care?
TTITLE13=The Pilgrim Travelers - Good News
TTITLE14=Golden Gate Quartet - Jericho
TTITLE15=Golden Gate Quartet - Swing Down, Chariot
TTITLE16=Louis Armstrong - Nobody Knows The Trouble I've Seen
TTITLE17=The Delta Boys - When The Saints Go Marchin' In
EXTD=
EXTT0=
EXTT1=
EXTT2=
EXTT3=
EXTT4=
EXTT5=
EXTT6=
EXTT7=
EXTT8=
EXTT9=
EXTT10=
EXTT11=
EXTT12=
EXTT13=
EXTT14=
EXTT15=
EXTT16=
EXTT17=
PLAYORDER=
